<svg width="29" height="17" viewBox="0 0 29 17" fill="none" xmlns="http://www.w3.org/2000/svg">
<path fill-rule="evenodd" clip-rule="evenodd" d="M19.1029 16.0746C18.9937 15.9657 18.907 15.8363 18.8479 15.6939C18.7888 15.5514 18.7584 15.3987 18.7584 15.2445C18.7584 15.0903 18.7888 14.9375 18.8479 14.7951C18.907 14.6526 18.9937 14.5233 19.1029 14.4143L25.3103 8.20926L19.1029 2.00418C18.9938 1.89516 18.9074 1.76574 18.8484 1.6233C18.7894 1.48086 18.759 1.3282 18.759 1.17402C18.759 1.01985 18.7894 0.867181 18.8484 0.724742C18.9074 0.582304 18.9938 0.452881 19.1029 0.343862C19.2119 0.234844 19.3413 0.148367 19.4837 0.0893667C19.6262 0.0303667 19.7788 1.72912e-06 19.933 1.7426e-06C20.0872 1.75608e-06 20.2399 0.0303668 20.3823 0.0893668C20.5247 0.148367 20.6542 0.234844 20.7632 0.343862L27.7984 7.3791C27.9076 7.48802 27.9942 7.61741 28.0534 7.75986C28.1125 7.90231 28.1429 8.05503 28.1429 8.20926C28.1429 8.36349 28.1125 8.5162 28.0534 8.65865C27.9942 8.80111 27.9076 8.9305 27.7984 9.03941L20.7632 16.0746C20.6543 16.1838 20.5249 16.2705 20.3824 16.3296C20.24 16.3887 20.0872 16.4191 19.933 16.4191C19.7788 16.4191 19.6261 16.3887 19.4836 16.3296C19.3412 16.2705 19.2118 16.1838 19.1029 16.0746Z" fill="#FFCC00"/>
<path fill-rule="evenodd" clip-rule="evenodd" d="M26.9686 8.20899C26.9686 8.51997 26.845 8.81821 26.6251 9.0381C26.4052 9.25799 26.107 9.38153 25.796 9.38153L1.17271 9.38153C0.861736 9.38153 0.563494 9.25799 0.343601 9.0381C0.123707 8.8182 0.000173644 8.51996 0.000173671 8.20899C0.000173698 7.89801 0.123707 7.59977 0.343601 7.37988C0.563494 7.15998 0.861737 7.03645 1.17271 7.03645L25.796 7.03645C26.107 7.03645 26.4053 7.15999 26.6251 7.37988C26.845 7.59977 26.9686 7.89801 26.9686 8.20899Z" fill="#FFCC00"/>
</svg>
